<svg xmlns="http://www.w3.org/2000/svg" width="160.62499476131063" height="166.4374999650754"><rect id="backgroundrect" width="125.48827715727393" height="130.02929684771516" x="2.34375" y="0" fill="none" stroke="none" class=""/>
 <g>
  <title>background</title>
  <rect fill="none" id="canvas_background" height="170" width="397" y="-1" x="-1"/>
 </g>
 <g class="currentLayer">
  <title>Layer 1</title>
  <path id="svg_2" d="m134.735623,3.520946c3.72,-1.41 7.8,-1.01 11.51,0.22c4.78,12.48 6.6,26.32 4.25,39.53c-1.9,9.83 -7.08,18.92 -14.44,25.7c-10.56,9.74 -22.95,17.85 -31.1,29.93c-4.72,6.84 -6.22,15.27 -6.71,23.41c-0.38,10.79 0.83,21.59 3.35,32.08c-7.71,3.47 -16.88,3.55 -24.76,0.58c-1.61,-7.53 -1.65,-15.29 -1.13,-22.94c-13.6,5.24 -29.25,5.57429 -41.1,-6.07c-0.85,8.58 -0.15,17.22 0.85,25.76c-6.31,2.47 -13.46,1.55 -19.75,-0.53c-6.65,-11.44 -11.56,-24.4 -11.02,-37.82c0.06,-11.89 4.33,-24.12 13.27,-32.23c4.79,6.7 11.43,12.32 19.43,14.67c10.37,3.23 22.34,2.1 31.35,-4.2c3.2,-2.05 5.97,-4.99 6.87,-8.78c-5.5,4.8 -11.40857,10.12857 -18.74857,11.19857c-15.5,2.93 -35.35143,-7.44143 -39.23143,-23.07143c-4.15,-14.53 7.79,-31.41714 21.9,-35.76714c11.54,-4.06 25.14,-1.5 34.07,6.97c0.92,1.28 2.89,1.77 4.02,0.45c5.45,-4.8 13.12,-7.15 20.29,-5.59c9.43,1.86 15.24,11.23 24.81,12.77c6,0.92 11.01,-4.13 12.74,-9.45c3.93,-11.96 1.89,-24.81 -0.72,-36.82z" fill="#217ebc" class="" fill-opacity="1"/>
  <path id="svg_3" d="m98.18286,52.771311c4.173109,-1.472322 8.831661,3.063791 7.153901,7.242462c-1.141217,4.016971 -6.923954,5.310571 -9.6237,2.07657c-2.88711,-2.859538 -1.388197,-8.212663 2.469799,-9.319032z" fill="#ffffff" fill-opacity="1" class="" stroke-opacity="1"/>
 </g>
</svg>